<svg xmlns="http://www.w3.org/2000/svg" viewBox="0 0 64 64">
  <defs>
    <radialGradient id="bg" cx="50%" cy="42%" r="58%">
      <stop offset="0%" stop-color="#53ff7a"/>
      <stop offset="42%" stop-color="#1f8f3d"/>
      <stop offset="100%" stop-color="#06130c"/>
    </radialGradient>
    <linearGradient id="visor" x1="0" y1="0" x2="1" y2="1">
      <stop offset="0%" stop-color="#c9ffd3"/>
      <stop offset="45%" stop-color="#58ff7b"/>
      <stop offset="100%" stop-color="#0f3f22"/>
    </linearGradient>
  </defs>
  <rect width="64" height="64" rx="14" fill="#07110d"/>
  <circle cx="32" cy="32" r="29" fill="url(#bg)" opacity=".9"/>
  <circle cx="32" cy="32" r="25" fill="#07110d" opacity=".68"/>
  <path d="M19 29c0-9 5.8-16 13-16s13 7 13 16v10c0 8-5.8 13-13 13s-13-5-13-13V29Z" fill="#0b1b12" stroke="#66d36e" stroke-width="2"/>
  <path d="M20 31c3-4 7-6 12-6s9 2 12 6v7c-3 3-7 5-12 5s-9-2-12-5v-7Z" fill="#111b17"/>
  <path d="M23 32c2.3-2.2 5.2-3.4 9-3.4s6.7 1.2 9 3.4c-1 4.3-4.2 7.2-9 7.2S24 36.3 23 32Z" fill="url(#visor)"/>
  <circle cx="26" cy="33" r="2.2" fill="#0b160f"/>
  <circle cx="38" cy="33" r="2.2" fill="#0b160f"/>
  <path d="M28 46h8" stroke="#66d36e" stroke-width="2" stroke-linecap="round"/>
  <path d="M16 30h-5m42 0h-5M18 43l-4 3m32-3 4 3" stroke="#7ef58a" stroke-width="2" stroke-linecap="round" opacity=".75"/>
</svg>
